<svg width="22" height="22" viewBox="0 0 22 22" fill="none" xmlns="http://www.w3.org/2000/svg">
<g id="Arrow - Right Circle">
<path id="Rectangle 264 (Stroke)" fill-rule="evenodd" clip-rule="evenodd" d="M0.299805 11C0.299805 5.09054 5.09036 0.299988 10.9998 0.299988C16.9093 0.299988 21.6998 5.09054 21.6998 11C21.6998 16.9094 16.9093 21.7 10.9998 21.7C5.09036 21.7 0.299805 16.9094 0.299805 11ZM10.9998 1.69999C5.86356 1.69999 1.6998 5.86374 1.6998 11C1.6998 16.1362 5.86356 20.3 10.9998 20.3C16.1361 20.3 20.2998 16.1362 20.2998 11C20.2998 5.86374 16.1361 1.69999 10.9998 1.69999Z" fill="#000814"/>
<path id="Vector 58 (Stroke)" fill-rule="evenodd" clip-rule="evenodd" d="M9.4795 7.03172C9.73813 6.74436 10.1807 6.72107 10.4681 6.97969L9.99981 7.49999L9.53154 8.0203C9.24418 7.76168 9.22088 7.31908 9.4795 7.03172ZM9.99981 14.5L9.53155 13.9797L9.56989 13.9451L9.67988 13.8455C9.77483 13.7594 9.91064 13.6358 10.0737 13.4863C10.4 13.1872 10.8342 12.7855 11.2677 12.3737C11.7028 11.9604 12.1302 11.5434 12.446 11.2118C12.5202 11.1339 12.5859 11.0631 12.6428 11C12.5859 10.9369 12.5202 10.8661 12.446 10.7882C12.1302 10.4566 11.7028 10.0396 11.2677 9.62624C10.8342 9.21448 10.4 8.81281 10.0737 8.51366C9.91064 8.3642 9.77483 8.24062 9.67988 8.15449L9.56989 8.0549L9.53154 8.0203L9.99981 7.49999L10.4681 6.97969L10.5083 7.01601L10.6205 7.11757C10.717 7.20507 10.8546 7.33031 11.0197 7.48164C11.3496 7.78405 11.7904 8.19176 12.2319 8.61124C12.6718 9.02913 13.1194 9.46528 13.4598 9.8227C13.6286 9.9999 13.7815 10.1687 13.896 10.3118C13.9522 10.3821 14.0109 10.4607 14.0591 10.5402C14.0832 10.5799 14.1126 10.6329 14.1379 10.6946C14.1593 10.7471 14.1998 10.8581 14.1998 11C14.1998 11.1419 14.1593 11.2529 14.1379 11.3054C14.1126 11.3671 14.0832 11.4201 14.0591 11.4598C14.0109 11.5393 13.9522 11.6179 13.896 11.6882C13.7815 11.8313 13.6286 12.0001 13.4598 12.1773C13.1194 12.5347 12.6718 12.9709 12.2319 13.3887C11.7904 13.8082 11.3496 14.2159 11.0197 14.5183C10.8546 14.6697 10.717 14.7949 10.6205 14.8824L10.5083 14.984L10.4688 15.0196L9.99981 14.5ZM9.99981 14.5L9.53155 13.9797C9.24419 14.2383 9.22088 14.6809 9.4795 14.9683C9.73813 15.2556 10.1807 15.2789 10.4681 15.0203L9.99981 14.5Z" fill="#000814"/>
</g>
</svg>
