<svg width="24" height="24" viewBox="0 0 24 24" fill="none" xmlns="http://www.w3.org/2000/svg">
<path fill-rule="evenodd" clip-rule="evenodd" d="M12 1.29999C6.0906 1.29999 1.30005 6.09054 1.30005 12C1.30005 17.9094 6.0906 22.7 12 22.7C17.9095 22.7 22.7 17.9094 22.7 12C22.7001 6.09054 17.9095 1.29999 12 1.29999ZM2.70005 12C2.70005 6.86374 6.8638 2.69999 12 2.69999C17.1363 2.69999 21.3 6.86374 21.3 12C21.3 17.1362 17.1363 21.3 12 21.3C6.8638 21.3 2.70005 17.1362 2.70005 12Z" fill="#ECF0F4"/>
<path fill-rule="evenodd" clip-rule="evenodd" d="M8.03178 10.4797C7.74442 10.7383 7.72113 11.1809 7.97975 11.4683L8.50005 11L9.02036 10.5317C8.76174 10.2444 8.31914 10.2211 8.03178 10.4797ZM15.5001 11L14.9797 10.5317L14.9451 10.5701L14.8456 10.6801C14.7594 10.775 14.6358 10.9108 14.4864 11.0739C14.1872 11.4002 13.7856 11.8344 13.3738 12.2679C12.9604 12.703 12.5435 13.1304 12.2118 13.4462C12.134 13.5204 12.0632 13.5861 12.0001 13.6429C11.9369 13.5861 11.8661 13.5204 11.7883 13.4462C11.4566 13.1304 11.0397 12.703 10.6263 12.2679C10.2145 11.8344 9.81287 11.4002 9.51372 11.0739C9.36427 10.9108 9.24068 10.775 9.15455 10.6801L9.05496 10.5701L9.02036 10.5317L8.50005 11L7.97975 11.4683L8.01607 11.5085L8.11763 11.6207C8.20513 11.7172 8.33038 11.8548 8.4817 12.0199C8.78411 12.3498 9.19182 12.7906 9.61131 13.2321C10.0292 13.672 10.4653 14.1196 10.8228 14.46C11 14.6288 11.1688 14.7817 11.3119 14.8962C11.3821 14.9524 11.4607 15.0111 11.5403 15.0593C11.58 15.0834 11.6329 15.1128 11.6947 15.138C11.7471 15.1595 11.8581 15.2 12.0001 15.2C12.142 15.2 12.253 15.1595 12.3054 15.138C12.3672 15.1128 12.4201 15.0834 12.4599 15.0593C12.5394 15.0111 12.618 14.9524 12.6882 14.8962C12.8313 14.7817 13.0001 14.6288 13.1773 14.46C13.5348 14.1196 13.9709 13.672 14.3888 13.2321C14.8083 12.7906 15.216 12.3498 15.5184 12.0199C15.6697 11.8548 15.795 11.7172 15.8825 11.6207L15.984 11.5085L16.0197 11.469L15.5001 11ZM15.5001 11L14.9797 10.5317C15.2384 10.2444 15.681 10.2211 15.9683 10.4797C16.2557 10.7383 16.279 11.1809 16.0204 11.4683L15.5001 11Z" fill="#ECF0F4"/>
</svg>
