<svg width="20" height="20" viewBox="0 0 20 20" fill="none" xmlns="http://www.w3.org/2000/svg">
<g id="Call">
<path id="Vector 19 (Stroke)" fill-rule="evenodd" clip-rule="evenodd" d="M3.16135 0.615666C3.5462 0.429868 3.95859 0.300049 4.31166 0.300049C4.54434 0.300049 4.76571 0.373467 4.93823 0.447481C5.1228 0.526663 5.31412 0.634259 5.50267 0.756923C5.88047 1.0027 6.29227 1.33848 6.68216 1.72002C7.43528 2.45698 8.23443 3.49023 8.44681 4.50334C8.53701 4.93361 8.44343 5.37083 8.20969 5.7243C8.06629 5.94115 7.88287 6.17098 7.70998 6.38489C7.68511 6.41566 7.66033 6.44626 7.63566 6.47671C7.48123 6.66738 7.33122 6.8526 7.19179 7.04052C7.03014 7.25838 6.90082 7.45624 6.81345 7.63382C6.72415 7.81532 6.70007 7.93313 6.70007 8.00005C6.70007 8.31432 6.89174 8.93568 7.31733 9.70986C7.72688 10.4549 8.29817 11.2418 8.93467 11.8704C9.60564 12.5331 10.1996 13.0254 10.7265 13.3488C11.218 13.6505 11.6118 13.7809 11.9281 13.7981C11.9429 13.7857 11.963 13.7678 11.9888 13.7424C12.0479 13.6842 12.1128 13.6117 12.2019 13.5112L12.2138 13.4977C12.2955 13.4056 12.3932 13.2953 12.5012 13.1839C12.9766 12.6934 13.6917 12.1422 14.869 12.1422C15.7892 12.1422 16.7291 12.628 17.4713 13.27C18.2251 13.9219 18.8751 14.8191 19.1703 15.7979C19.4211 16.6296 19.0129 17.3378 18.5307 17.827C18.0451 18.3196 17.3654 18.7254 16.7051 19.0387C15.5937 19.5661 14.3586 19.751 13.1564 19.6354C11.018 19.4296 8.03901 18.5801 4.51866 15.2451C4.50711 15.2341 4.49593 15.2228 4.48515 15.2111C2.48685 13.041 1.40033 11.205 0.836489 9.52586C0.271705 7.84393 0.250252 6.37239 0.300539 4.98848C0.357747 3.41411 1.08844 2.24419 1.91156 1.47812C2.3211 1.09696 2.75891 0.809962 3.16135 0.615666ZM2.86536 2.50294C2.2602 3.06616 1.7409 3.90316 1.69962 5.03932C1.65141 6.36594 1.6792 7.63747 2.16366 9.0802C2.64769 10.5216 3.60634 12.1864 5.49883 14.2451C8.77993 17.3471 11.4592 18.0656 13.2905 18.2418C14.2636 18.3354 15.242 18.1834 16.1049 17.7739C16.7036 17.4898 17.2148 17.1677 17.5337 16.8442C17.8559 16.5172 17.8658 16.3211 17.8299 16.2022C17.6251 15.5231 17.1481 14.8414 16.5555 14.3288C15.9514 13.8063 15.3258 13.5422 14.869 13.5422C14.2102 13.5422 13.8345 13.8199 13.5064 14.1583C13.4207 14.2467 13.3415 14.3361 13.2556 14.4331L13.2497 14.4397C13.1667 14.5334 13.0699 14.6426 12.9714 14.7396C12.7935 14.915 12.4678 15.2 12.0001 15.2C11.3185 15.2 10.6458 14.942 9.99414 14.542C9.33985 14.1404 8.65998 13.5669 7.95088 12.8665C7.20732 12.1321 6.55726 11.2334 6.09048 10.3843C5.63973 9.56433 5.30007 8.68301 5.30007 8.00005C5.30007 7.6364 5.4181 7.29861 5.55726 7.01578C5.69833 6.72904 5.88379 6.45386 6.06747 6.2063C6.22612 5.99249 6.39694 5.78165 6.55019 5.59251C6.57432 5.56274 6.59801 5.53349 6.62115 5.50486C6.79891 5.28493 6.9409 5.10485 7.04192 4.95209C7.07821 4.89721 7.08684 4.83946 7.0766 4.79059C6.95179 4.19522 6.40238 3.40502 5.703 2.72064C5.36666 2.3915 5.02622 2.11715 4.73924 1.93045C4.5954 1.83688 4.47619 1.77266 4.38627 1.73408C4.33631 1.71265 4.30673 1.70405 4.29478 1.70085C4.22475 1.70664 4.04101 1.7456 3.77003 1.87642C3.49086 2.01121 3.16996 2.21945 2.86536 2.50294Z" fill="#000814"/>
</g>
</svg>
