<svg width="20" height="23" viewBox="0 0 20 23" fill="none" xmlns="http://www.w3.org/2000/svg">
<g id="Location">
<path id="Ellipse 8 (Stroke)" fill-rule="evenodd" clip-rule="evenodd" d="M4.12246 3.86575C2.65333 5.28645 1.6998 7.45492 1.6998 10.45C1.6998 12.961 3.30564 15.6832 5.2671 17.8347C6.23513 18.8965 7.25837 19.784 8.14833 20.4003C8.59372 20.7088 8.99474 20.9416 9.32976 21.0947C9.68031 21.2549 9.89941 21.3 9.9998 21.3C10.1002 21.3 10.3193 21.2549 10.6698 21.0947C11.0049 20.9416 11.4059 20.7088 11.8513 20.4003C12.7412 19.784 13.7645 18.8965 14.7325 17.8347C16.694 15.6832 18.2998 12.961 18.2998 10.45C18.2998 7.45492 17.3463 5.28645 15.8772 3.86575C14.4024 2.43961 12.3389 1.70005 9.9998 1.70005C7.66073 1.70005 5.5972 2.43961 4.12246 3.86575ZM3.14923 2.85935C4.93184 1.13549 7.36831 0.300049 9.9998 0.300049C12.6313 0.300049 15.0678 1.13549 16.8504 2.85935C18.6386 4.58864 19.6998 7.14518 19.6998 10.45C19.6998 13.4891 17.8056 16.5419 15.7671 18.7779C14.7351 19.9098 13.6334 20.8692 12.6483 21.5513C12.1562 21.8921 11.6822 22.1714 11.2516 22.3681C10.8366 22.5577 10.3994 22.7001 9.9998 22.7001C9.6002 22.7001 9.16305 22.5577 8.74797 22.3681C8.31737 22.1714 7.84339 21.8921 7.35128 21.5513C6.36624 20.8692 5.26448 19.9098 4.23251 18.7779C2.19397 16.5419 0.299805 13.4891 0.299805 10.45C0.299805 7.14518 1.361 4.58864 3.14923 2.85935Z" fill="#000814"/>
<path id="Ellipse 9 (Stroke)" fill-rule="evenodd" clip-rule="evenodd" d="M9.99981 6.70005C8.59148 6.70005 7.4498 7.84172 7.4498 9.25005C7.4498 10.6584 8.59148 11.8 9.99981 11.8C11.4081 11.8 12.5498 10.6584 12.5498 9.25005C12.5498 7.84172 11.4081 6.70005 9.99981 6.70005ZM6.0498 9.25005C6.0498 7.06852 7.81828 5.30005 9.99981 5.30005C12.1813 5.30005 13.9498 7.06852 13.9498 9.25005C13.9498 11.4316 12.1813 13.2 9.99981 13.2C7.81828 13.2 6.0498 11.4316 6.0498 9.25005Z" fill="#000814"/>
</g>
</svg>
