<svg width="24" height="24" viewBox="0 0 24 24" fill="none" xmlns="http://www.w3.org/2000/svg">
<path fill-rule="evenodd" clip-rule="evenodd" d="M5 5.30001C5 4.91341 5.3134 4.60001 5.7 4.60001H18.3C18.6866 4.60001 19 4.91341 19 5.30001C19 5.68661 18.6866 6.00001 18.3 6.00001H5.7C5.3134 6.00001 5 5.68661 5 5.30001Z" fill="#ECF0F4"/>
<path fill-rule="evenodd" clip-rule="evenodd" d="M5 11.3C5 10.9134 5.3134 10.6 5.7 10.6H18.3C18.6866 10.6 19 10.9134 19 11.3C19 11.6866 18.6866 12 18.3 12H5.7C5.3134 12 5 11.6866 5 11.3Z" fill="#ECF0F4"/>
<path fill-rule="evenodd" clip-rule="evenodd" d="M5 17.3C5 16.9134 5.3134 16.6 5.7 16.6H18.3C18.6866 16.6 19 16.9134 19 17.3C19 17.6866 18.6866 18 18.3 18H5.7C5.3134 18 5 17.6866 5 17.3Z" fill="#ECF0F4"/>
</svg>
